<svg width="23" height="22" viewBox="0 0 23 22" fill="none" xmlns="https://www.w3.org/2000/svg">
<path id="Vector" d="M16.438 13.8384H15.3991L15.0309 13.4988C16.3643 12.0196 17.0971 10.1312 17.0955 8.17806C17.0955 6.56098 16.5942 4.98021 15.6549 3.63566C14.7157 2.29111 13.3807 1.24315 11.8188 0.624325C10.2569 0.00549573 8.53826 -0.156418 6.88016 0.159058C5.22206 0.474535 3.699 1.25323 2.50358 2.39668C1.30816 3.54013 0.494063 4.99697 0.164246 6.58298C-0.16557 8.16899 0.00370359 9.81293 0.650662 11.3069C1.29762 12.8009 2.39321 14.0778 3.79887 14.9762C5.20454 15.8746 6.85716 16.3542 8.54774 16.3542C10.665 16.3542 12.6112 15.612 14.1103 14.3793L14.4654 14.7315V15.7252L21.0406 22.002L23 20.1277L16.438 13.8384ZM8.54774 13.8384C5.2733 13.8384 2.63008 11.3101 2.63008 8.17806C2.63008 5.04598 5.2733 2.51768 8.54774 2.51768C11.8222 2.51768 14.4654 5.04598 14.4654 8.17806C14.4654 11.3101 11.8222 13.8384 8.54774 13.8384Z" fill="#8AA823"/>
</svg>
